<?xml version="1.0" encoding="utf-8"?>
<!-- Generator: Adobe Illustrator 25.0.1, SVG Export Plug-In . SVG Version: 6.00 Build 0)  -->
<svg version="1.1" id="레이어_1" xmlns="http://www.w3.org/2000/svg" xmlns:xlink="http://www.w3.org/1999/xlink" x="0px"
	 y="0px" viewBox="0 0 213.2 75.9" style="enable-background:new 0 0 213.2 75.9;" xml:space="preserve">
<style type="text/css">
	.st0{fill:#05A4C9;}
	.st1{enable-background:new    ;}
	.st2{fill:#EDB357;}
</style>
<path class="st0" d="M78.4,5.2c-7.3-6.8-26.8,2.2-43.9,20c-7.8,8.3-13.7,17.1-17.1,24.6c-3.9,9,15.6-7.3,21-1.7
	c6.1,6.3-10,24.6-1,20c7.3-3.9,15.6-10,23.2-18.3C77.7,32.1,85.7,12.1,78.4,5.2z M67.2,21.3c-2.9,0-5.1-2.4-5.1-5.1s2.4-5.1,5.1-5.1
	c2.9,0,5.1,2.4,5.1,5.1S70.1,21.3,67.2,21.3z M30.4,63c-2.7,3.4-7.8,3.7-7.8,3.7s-0.7-5.1,2-8.3c2.7-3.4,7.8-3.7,7.8-3.7
	S33.1,59.6,30.4,63z"/>
<g class="st1">
	<path class="st2" d="M95.7,32.6c0.2-1.2,0.5-2.2,0.5-3.2c0.2-0.5,0.2-1.2,0.7-2c0.5-0.7,0.5-1.5,0.7-2c0.2-0.5,0.5-1,1-1.5
		c0.5-0.5,0.7-1,1-1.5c0.2-0.2,0.7-0.7,1.2-1.2c0.5-0.5,1-0.7,1.2-1s0.7-0.5,1.2-0.7c0.5-0.2,1-0.5,1.5-0.5c0.5-0.2,1-0.2,2-0.5
		c0.7-0.2,1.7-0.2,2.4-0.2s1.7,0,2.4,0.2c0.7,0.2,1.5,0.2,2,0.5c0.5,0,1,0.2,1.5,0.5c0.5,0.2,1,0.5,1.2,0.7c0.5,0.2,0.7,0.5,1.2,1
		c0.5,0.5,0.7,0.7,1.2,1.2c0.2,0.5,0.7,1,1,1.5c0.5,0.5,0.7,1,1,1.5c0.2,0.5,0.5,1.2,0.7,2s0.5,1.5,0.7,2c0.2,0.7,0.5,1.7,0.5,3.2
		c0.2,1.2,0.2,2.4,0.2,3.9c0,1.2,0,2.4-0.2,3.9c-0.2,1.2-0.2,2.4-0.5,3.2c-0.2,0.5-0.2,1.2-0.7,2c-0.2,0.7-0.5,1.5-0.7,2
		c-0.2,0.5-0.5,1-1,1.5c-0.5,0.5-0.7,1-1,1.5c-0.2,0.2-0.7,0.7-1.2,1.2c-0.5,0.5-1,0.7-1.2,1c-0.2,0.2-0.7,0.5-1.2,0.7
		c-0.5,0.2-1,0.5-1.5,0.5c-0.5,0-1,0.2-2,0.5c-0.7,0.2-1.7,0.2-2.4,0.2s-1.7,0-2.4-0.2c-0.7-0.2-1.5-0.2-2-0.5s-1-0.2-1.5-0.5
		c-0.5-0.2-1-0.5-1.2-0.7c-0.5-0.2-0.7-0.5-1.2-1c-0.5-0.5-0.7-0.7-1.2-1.2c-0.2-0.5-0.7-1-1-1.5c-0.2-0.5-0.7-1-1-1.5
		c-0.2-0.5-0.5-1.2-0.7-2s-0.5-1.5-0.7-2c-0.2-0.7-0.5-1.7-0.5-3.2c-0.2-1.2-0.2-2.4-0.2-3.9C95.5,35,95.5,33.8,95.7,32.6z
		 M101.6,38.9c0,1,0.2,2,0.2,2.4c0,0.2,0.2,0.7,0.2,1.2c0.2,0.5,0.2,1,0.5,1.2c0.2,0.2,0.2,0.7,0.5,1c0.2,0.2,0.2,0.7,0.5,1
		c0.2,0.2,0.2,0.5,0.5,0.7s0.5,0.5,0.7,0.7s0.5,0.5,0.7,0.5c0.2,0.2,0.5,0.2,1,0.5c0.2,0,0.5,0.2,1.2,0.2c0.5,0,1,0.2,1.5,0.2
		c0.5,0,1,0,1.5-0.2c0.5,0,1-0.2,1.2-0.2c0.2-0.2,0.7-0.2,1-0.5c0.2-0.2,0.5-0.5,0.7-0.5c0.2-0.2,0.5-0.5,0.7-0.7
		c0.2-0.2,0.5-0.5,0.5-0.7c0.2-0.2,0.2-0.5,0.5-1c0.2-0.2,0.2-0.7,0.5-1c0.2-0.2,0.2-0.7,0.5-1.2c0.2-0.5,0.2-1,0.2-1.2
		c0.2-0.5,0.2-1.5,0.2-2.4s0.2-2,0.2-2.7s0-1.5-0.2-2.7c0-1-0.2-2-0.2-2.4c0-0.2-0.2-0.7-0.2-1.2c-0.2-0.5-0.2-1-0.5-1.2
		c0-0.2-0.2-0.7-0.5-1c-0.2-0.2-0.2-0.7-0.5-1c-0.2-0.2-0.2-0.5-0.5-0.7c-0.2-0.2-0.5-0.5-0.7-0.7c-0.2-0.2-0.5-0.5-0.7-0.7
		c-0.2-0.2-0.5-0.5-1-0.5c-0.2,0-0.5-0.2-1.2-0.2c-0.7,0-1-0.2-1.5-0.2c-0.5,0-1,0-1.5,0.2c-0.5,0-1,0.2-1.2,0.2s-0.5,0.2-1,0.5
		c-0.2,0.2-0.5,0.5-0.7,0.7c-0.2,0.2-0.5,0.5-0.7,0.7c-0.2,0.2-0.5,0.5-0.5,0.7c-0.2,0.2-0.2,0.5-0.5,1c-0.2,0.2-0.2,0.7-0.5,1
		c0,0.2-0.2,0.7-0.5,1.2c-0.2,0.5-0.2,1-0.2,1.2c0,0.5-0.2,1.5-0.2,2.4c0,1-0.2,2-0.2,2.7S101.6,37.9,101.6,38.9z"/>
	<path class="st2" d="M145.2,38.2h-11.7v15.4h-5.6V19.1h5.6v13.7h11.9V19.1h5.6v34.4h-5.6V38.2H145.2z"/>
	<path class="st2" d="M164.2,42.3l-9.8-23.2h6.6l6.3,16.3l6.3-16.3h6.1l-9.8,23.2v11.2h-5.6V42.3H164.2z"/>
	<path class="st2" d="M183.2,19.1h19.3v5.1h-13.4V33h12.7v5.1h-12.7v10H203v5.1h-19.5V19.1H183.2z"/>
</g>
</svg>
