<?xml version="1.0" encoding="utf-8"?>
<!-- Generator: Adobe Illustrator 25.0.1, SVG Export Plug-In . SVG Version: 6.00 Build 0)  -->
<svg version="1.1" id="레이어_1" xmlns="http://www.w3.org/2000/svg" xmlns:xlink="http://www.w3.org/1999/xlink" x="0px"
	 y="0px" viewBox="0 0 92.7 33" style="enable-background:new 0 0 92.7 33;" xml:space="preserve">
<style type="text/css">
	.st0{fill:#05A4C9;}
	.st1{enable-background:new    ;}
	.st2{fill:#EDB357;}
</style>
<path class="st0" d="M31.4,3.9c-3-2.8-11,0.9-18,8.2c-3.2,3.4-5.6,7-7,10.1c-1.6,3.7,6.4-3,8.6-0.7c2.5,2.6-4.1,10.1-0.4,8.2
	c3-1.6,6.4-4.1,9.5-7.5C31.1,14.9,34.4,6.7,31.4,3.9z M26.8,10.5c-1.2,0-2.1-1-2.1-2.1s1-2.1,2.1-2.1c1.2,0,2.1,1,2.1,2.1
	S28,10.5,26.8,10.5z M11.7,27.6c-1.1,1.4-3.2,1.5-3.2,1.5S8.2,27,9.3,25.7c1.1-1.4,3.2-1.5,3.2-1.5S12.8,26.2,11.7,27.6z"/>
<g class="st1">
	<path class="st2" d="M38.5,15.1c0.1-0.5,0.2-0.9,0.2-1.3c0.1-0.2,0.1-0.5,0.3-0.8s0.2-0.6,0.3-0.8c0.1-0.2,0.2-0.4,0.4-0.6
		c0.2-0.2,0.3-0.4,0.4-0.6c0.1-0.1,0.3-0.3,0.5-0.5c0.2-0.2,0.4-0.3,0.5-0.4c0.1-0.1,0.3-0.2,0.5-0.3c0.2-0.1,0.4-0.2,0.6-0.2
		c0.2-0.1,0.4-0.1,0.8-0.2c0.3-0.1,0.7-0.1,1-0.1s0.7,0,1,0.1c0.3,0.1,0.6,0.1,0.8,0.2c0.2,0,0.4,0.1,0.6,0.2
		c0.2,0.1,0.4,0.2,0.5,0.3c0.2,0.1,0.3,0.2,0.5,0.4c0.2,0.2,0.3,0.3,0.5,0.5c0.1,0.2,0.3,0.4,0.4,0.6c0.2,0.2,0.3,0.4,0.4,0.6
		c0.1,0.2,0.2,0.5,0.3,0.8c0.1,0.3,0.2,0.6,0.3,0.8c0.1,0.3,0.2,0.7,0.2,1.3c0.1,0.5,0.1,1,0.1,1.6c0,0.5,0,1-0.1,1.6
		c-0.1,0.5-0.1,1-0.2,1.3c-0.1,0.2-0.1,0.5-0.3,0.8c-0.1,0.3-0.2,0.6-0.3,0.8c-0.1,0.2-0.2,0.4-0.4,0.6s-0.3,0.4-0.4,0.6
		c-0.1,0.1-0.3,0.3-0.5,0.5c-0.2,0.2-0.4,0.3-0.5,0.4c-0.1,0.1-0.3,0.2-0.5,0.3c-0.2,0.1-0.4,0.2-0.6,0.2c-0.2,0-0.4,0.1-0.8,0.2
		c-0.3,0.1-0.7,0.1-1,0.1s-0.7,0-1-0.1c-0.3-0.1-0.6-0.1-0.8-0.2c-0.2-0.1-0.4-0.1-0.6-0.2c-0.2-0.1-0.4-0.2-0.5-0.3
		c-0.2-0.1-0.3-0.2-0.5-0.4c-0.2-0.2-0.3-0.3-0.5-0.5c-0.1-0.2-0.3-0.4-0.4-0.6s-0.3-0.4-0.4-0.6c-0.1-0.2-0.2-0.5-0.3-0.8
		c-0.1-0.3-0.2-0.6-0.3-0.8c-0.1-0.3-0.2-0.7-0.2-1.3c-0.1-0.5-0.1-1-0.1-1.6C38.4,16.1,38.4,15.6,38.5,15.1z M40.9,17.7
		c0,0.4,0.1,0.8,0.1,1c0,0.1,0.1,0.3,0.1,0.5c0.1,0.2,0.1,0.4,0.2,0.5c0.1,0.1,0.1,0.3,0.2,0.4c0.1,0.1,0.1,0.3,0.2,0.4
		c0.1,0.1,0.1,0.2,0.2,0.3c0.1,0.1,0.2,0.2,0.3,0.3c0.1,0.1,0.2,0.2,0.3,0.2c0.1,0.1,0.2,0.1,0.4,0.2c0.1,0,0.2,0.1,0.5,0.1
		c0.2,0,0.4,0.1,0.6,0.1c0.2,0,0.4,0,0.6-0.1c0.2,0,0.4-0.1,0.5-0.1c0.1-0.1,0.3-0.1,0.4-0.2c0.1-0.1,0.2-0.2,0.3-0.2
		c0.1-0.1,0.2-0.2,0.3-0.3s0.2-0.2,0.2-0.3c0.1-0.1,0.1-0.2,0.2-0.4c0.1-0.1,0.1-0.3,0.2-0.4c0.1-0.1,0.1-0.3,0.2-0.5
		c0.1-0.2,0.1-0.4,0.1-0.5c0.1-0.2,0.1-0.6,0.1-1c0-0.4,0.1-0.8,0.1-1.1s0-0.6-0.1-1.1c0-0.4-0.1-0.8-0.1-1c0-0.1-0.1-0.3-0.1-0.5
		c-0.1-0.2-0.1-0.4-0.2-0.5c0-0.1-0.1-0.3-0.2-0.4c-0.1-0.1-0.1-0.3-0.2-0.4c-0.1-0.1-0.1-0.2-0.2-0.3s-0.2-0.2-0.3-0.3
		c-0.1-0.1-0.2-0.2-0.3-0.3s-0.2-0.2-0.4-0.2c-0.1,0-0.2-0.1-0.5-0.1s-0.4-0.1-0.6-0.1c-0.2,0-0.4,0-0.6,0.1c-0.2,0-0.4,0.1-0.5,0.1
		c-0.1,0-0.2,0.1-0.4,0.2c-0.1,0.1-0.2,0.2-0.3,0.3c-0.1,0.1-0.2,0.2-0.3,0.3c-0.1,0.1-0.2,0.2-0.2,0.3c-0.1,0.1-0.1,0.2-0.2,0.4
		c-0.1,0.1-0.1,0.3-0.2,0.4c0,0.1-0.1,0.3-0.2,0.5c-0.1,0.2-0.1,0.4-0.1,0.5c0,0.2-0.1,0.6-0.1,1c0,0.4-0.1,0.8-0.1,1.1
		S40.9,17.3,40.9,17.7z"/>
	<path class="st2" d="M58.8,17.4H54v6.3h-2.3V9.6H54v5.6h4.9V9.6h2.3v14.1h-2.3V17.4z"/>
	<path class="st2" d="M66.6,19.1l-4-9.5h2.7l2.6,6.7l2.6-6.7H73l-4,9.5v4.6h-2.3V19.1z"/>
	<path class="st2" d="M74.4,9.6h7.9v2.1h-5.5v3.6h5.2v2.1h-5.2v4.1h5.7v2.1h-8V9.6z"/>
</g>
</svg>
